# xmcd
#
# Track frame offsets:
#	150
#	15072
#	24897
#	36772
#	50925
#	61647
#	72522
#	83982
#	97135
#	107715
#	120722
#	136167
#	155385
#	166687
#	179205
#	190350
#	202930
#	215270
#	230430
#	241337
#	253892
#	268717
#	276867
#	285950
#	298832
#
# Disc length: 4116
#
# Revision: 2
# Processed by: cddbd v1.5.1PL0 Copyright (c) Steve Scherf et al.
# Submitted via: audiograbber 1.81.03
# Normalized: r1:DSETVAR1
#
DISCID=69101219
DTITLE=Various Artist - Country 100 Volume 3
DYEAR=1990
DGENRE=Country
TTITLE0=Don Gibson - Woman
TTITLE1=Mel Tillis - I Ain't Never
TTITLE2=Ernie Ashworth - Talk Back Trembling Lips
TTITLE3=Glen Campbell - Country Boy
TTITLE4=Everly Brothers - Bye Bye Love
TTITLE5=Reba McEntire - Can't Even Get The Blues
TTITLE6=Marvin Rainwater - Gonna Find Me A Bluewbird
TTITLE7=Hank Williams - Hey Good Lookin'
TTITLE8=Hank Locklin - Please Help Me I'm Fallin'
TTITLE9=Tom T. Hall - Faster Horses
TTITLE10=Billy Crash Craddock - If I Could Write A Song As Beautiful As You
TTITLE11=Mac Davis - Texas In My Rearview Mirror
TTITLE12=Willie Nelson - Night Life
TTITLE13=George Jones - White Lightning
TTITLE14=Johnny Cash - Oh Lonesome Me
TTITLE15=Mel Tillis - Midnight, Me, And The Blues
TTITLE16=Wilma Lee and Stony Cooper - Big Midnight Special
TTITLE17=Jessie Colter - I'm Not Lisa
TTITLE18=Roger Miller - King Of The Road
TTITLE19=Hank Williams - I'm So Lonesome I Could Cry
TTITLE20=Ray Stevens - The Streak
TTITLE21=Johnny Cash - Guess Things Happen That Way
TTITLE22=Everly Brothers - Wake Up Little Susie
TTITLE23=Statler Brothers - Do You Remember These?
TTITLE24=Statler Brothers - Do You Know You Are My Sunshine
EXTD=
EXTT0=
EXTT1=
EXTT2=
EXTT3=
EXTT4=
EXTT5=
EXTT6=
EXTT7=
EXTT8=
EXTT9=
EXTT10=
EXTT11=
EXTT12=
EXTT13=
EXTT14=
EXTT15=
EXTT16=
EXTT17=
EXTT18=
EXTT19=
EXTT20=
EXTT21=
EXTT22=
EXTT23=
EXTT24=
PLAYORDER=
